<?xml version="1.0" standalone="no"?><svg xmlns="http://www.w3.org/2000/svg" viewBox="0 0 1440 320"><path fill="#0099ff" fill-opacity="1" d="M0,224L0,256L36.9,256L36.9,128L73.8,128L73.8,96L110.8,96L110.8,160L147.7,160L147.7,160L184.6,160L184.6,320L221.5,320L221.5,224L258.5,224L258.5,160L295.4,160L295.4,96L332.3,96L332.3,32L369.2,32L369.2,0L406.2,0L406.2,192L443.1,192L443.1,256L480,256L480,128L516.9,128L516.9,224L553.8,224L553.8,0L590.8,0L590.8,64L627.7,64L627.7,32L664.6,32L664.6,32L701.5,32L701.5,256L738.5,256L738.5,128L775.4,128L775.4,64L812.3,64L812.3,288L849.2,288L849.2,256L886.2,256L886.2,128L923.1,128L923.1,288L960,288L960,256L996.9,256L996.9,160L1033.8,160L1033.8,64L1070.8,64L1070.8,96L1107.7,96L1107.7,32L1144.6,32L1144.6,256L1181.5,256L1181.5,64L1218.5,64L1218.5,192L1255.4,192L1255.4,224L1292.3,224L1292.3,160L1329.2,160L1329.2,256L1366.2,256L1366.2,32L1403.1,32L1403.1,96L1440,96L1440,320L1403.1,320L1403.1,320L1366.2,320L1366.2,320L1329.2,320L1329.2,320L1292.3,320L1292.3,320L1255.4,320L1255.4,320L1218.5,320L1218.5,320L1181.5,320L1181.5,320L1144.6,320L1144.6,320L1107.7,320L1107.7,320L1070.8,320L1070.8,320L1033.8,320L1033.8,320L996.9,320L996.9,320L960,320L960,320L923.1,320L923.1,320L886.2,320L886.2,320L849.2,320L849.2,320L812.3,320L812.3,320L775.4,320L775.4,320L738.5,320L738.5,320L701.5,320L701.5,320L664.6,320L664.6,320L627.7,320L627.7,320L590.8,320L590.8,320L553.8,320L553.8,320L516.9,320L516.9,320L480,320L480,320L443.1,320L443.1,320L406.2,320L406.2,320L369.2,320L369.2,320L332.3,320L332.3,320L295.4,320L295.4,320L258.5,320L258.5,320L221.5,320L221.5,320L184.6,320L184.6,320L147.7,320L147.7,320L110.8,320L110.8,320L73.8,320L73.8,320L36.9,320L36.9,320L0,320L0,320Z"></path></svg>