<?xml version="1.0" standalone="no"?>
<svg viewBox="0 0 200 200" xmlns="http://www.w3.org/2000/svg">
  <path fill="#8A3FFC" d="M31.7,-57.7C37.6,-45.6,36.4,-30.8,38.6,-19.5C40.7,-8.3,46.2,-0.4,52.9,13.2C59.6,26.7,67.5,46,60.9,51.8C54.4,57.5,33.3,49.7,17.9,48.4C2.5,47.1,-7.2,52.4,-19.7,54.5C-32.3,56.7,-47.6,55.6,-52.1,47.1C-56.6,38.5,-50.2,22.4,-53.1,7.2C-56.1,-8.1,-68.3,-22.4,-65,-29.6C-61.6,-36.9,-42.7,-37,-29.3,-45.6C-15.9,-54.3,-7.9,-71.4,2.5,-75.3C12.9,-79.1,25.8,-69.7,31.7,-57.7Z" transform="translate(100 100)" />
</svg>
